<svg preserveAspectRatio="none" width="100%" height="100%" overflow="visible" style="display: block;" viewBox="0 0 13.5001 13.5001" fill="none" xmlns="http://www.w3.org/2000/svg">
<g id="Group">
<path id="Vector" d="M4.3065 5.93584L6.26117 7.8905" stroke="var(--stroke-0, white)" stroke-width="1.5" stroke-linecap="round" stroke-linejoin="round"/>
<path id="Vector_2" d="M5.93584 4.3065L7.8905 6.26117" stroke="var(--stroke-0, white)" stroke-width="1.5" stroke-linecap="round" stroke-linejoin="round"/>
<path id="Vector_3" d="M4.46917 8.05317C4.87361 7.46739 5.40695 6.79006 6.0985 6.0985C6.60161 5.59539 7.24872 5.02473 8.05317 4.46917" stroke="var(--stroke-0, white)" stroke-width="1.5" stroke-linecap="round" stroke-linejoin="round"/>
<path id="Vector_4" d="M0.760725 8.14295C1.82028 8.44339 2.82028 9.01139 3.65495 9.84517C4.48961 10.6789 5.05673 11.6789 5.35717 12.7394" stroke="var(--stroke-0, white)" stroke-width="1.5" stroke-linecap="round" stroke-linejoin="round"/>
<path id="Vector_5" d="M8.14295 0.760725C8.44339 1.82028 9.01139 2.82028 9.84517 3.65495C10.6789 4.48961 11.6789 5.05673 12.7394 5.35717" stroke="var(--stroke-0, white)" stroke-width="1.5" stroke-linecap="round" stroke-linejoin="round"/>
<path id="Vector_6" d="M3.0345 3.0345C0.70917 5.35984 0.161614 8.78384 1.37939 11.6336C1.47184 11.8505 1.64961 12.0283 1.8665 12.1207C4.71628 13.3385 8.14028 12.7909 10.4656 10.4656C12.7909 8.14028 13.3385 4.71628 12.1207 1.8665C12.0283 1.64961 11.8505 1.47184 11.6336 1.37939C8.78384 0.161614 5.35984 0.70917 3.0345 3.0345Z" stroke="var(--stroke-0, white)" stroke-width="1.5" stroke-linecap="round" stroke-linejoin="round"/>
</g>
</svg>
