<svg preserveAspectRatio="none" width="100%" height="100%" overflow="visible" style="display: block;" viewBox="0 0 13.0556 13.9444" fill="none" xmlns="http://www.w3.org/2000/svg">
<g id="Group">
<path id="Vector" d="M10.5278 10.5278V12.3056C10.5278 12.7962 10.1296 13.1944 9.63889 13.1944H4.75C4.25933 13.1944 3.86111 12.7962 3.86111 12.3056V10.5278" stroke="var(--stroke-0, white)" stroke-width="1.5" stroke-linecap="round" stroke-linejoin="round"/>
<path id="Vector_2" d="M9.63889 3.86111C9.63889 4.84333 8.84333 5.63889 7.86111 5.63889H5.4878" stroke="var(--stroke-0, white)" stroke-width="1.5" stroke-linecap="round" stroke-linejoin="round"/>
<path id="Vector_3" d="M2.32156 4.75089C2.17044 4.48956 2.08333 4.18556 2.08333 3.86111V3.41667C2.08333 1.94378 3.27711 0.75 4.75 0.75H9.63889C11.1118 0.75 12.3056 1.94378 12.3056 3.41667V7.86111C12.3056 9.334 11.1118 10.5278 9.63889 10.5278H3.41667C1.94378 10.5278 0.75 9.334 0.75 7.86111V6.52778C0.75 5.54556 1.54556 4.75 2.52778 4.75H4.08333C4.942 4.75 5.63889 5.44689 5.63889 6.30556C5.63889 7.16511 4.942 7.86111 4.08333 7.86111H3.41667" stroke="var(--stroke-0, white)" stroke-width="1.5" stroke-linecap="round" stroke-linejoin="round"/>
</g>
</svg>
