<svg preserveAspectRatio="none" width="100%" height="100%" overflow="visible" style="display: block;" viewBox="0 0 14.2222 14.2222" fill="none" xmlns="http://www.w3.org/2000/svg">
<g id="Group">
<path id="Vector" d="M12.3822 11.8711C13.5671 10.5627 14.2222 8.88889 14.2222 7.11111C14.2222 5.21156 13.4827 3.42578 12.1396 2.08267C10.7964 0.739555 9.01067 0 7.11111 0C5.21156 0 3.42578 0.739555 2.08267 2.08267C0.739555 3.42578 0 5.21156 0 7.11111C0 8.88444 0.651556 10.5538 1.83022 11.8613C1.85067 11.8827 1.86578 11.9076 1.888 11.9253C1.95378 11.9964 2.01333 12.0711 2.08267 12.1396C3.42578 13.4827 5.21156 14.2222 7.11111 14.2222C9.01067 14.2222 10.7964 13.4827 12.1396 12.1396C12.2089 12.0702 12.2693 11.9956 12.3351 11.9244C12.3538 11.9093 12.3653 11.8889 12.3822 11.872V11.8711ZM11.6293 10.7076L10.4782 10.6009L9.67467 9.448L10.592 6.68444L11.88 6.26222L12.8756 6.85333C12.8791 6.93956 12.888 7.024 12.888 7.11022C12.888 8.43378 12.4427 9.688 11.6284 10.7067L11.6293 10.7076ZM11.9298 3.92089L11.4676 4.99467L10.1822 5.416L7.77689 3.66844V2.31289L8.65156 1.54489C9.60444 1.80711 10.4791 2.30756 11.1964 3.02489C11.4729 3.30222 11.7182 3.60178 11.9298 3.92089ZM5.56978 1.54578L6.44444 2.31378V3.66933L4.03911 5.41689L2.75467 4.99644L2.29244 3.92267C2.504 3.60356 2.74933 3.30311 3.02578 3.02667C3.74311 2.30933 4.61778 1.808 5.56978 1.54578ZM1.34578 6.85422L2.34133 6.26311L3.62844 6.68533L4.54667 9.44889L3.744 10.6018L2.59289 10.7084C1.77867 9.68978 1.33333 8.43556 1.33333 7.11111C1.33333 7.02489 1.34222 6.94044 1.34578 6.85422ZM5.08622 12.5191L4.82844 11.3769L5.632 10.2222H8.58933L9.39378 11.3769L9.136 12.5191C8.496 12.7582 7.81422 12.8889 7.11111 12.8889C6.408 12.8889 5.72622 12.7582 5.08622 12.5191Z" fill="var(--fill-0, white)"/>
</g>
</svg>
