<svg preserveAspectRatio="none" width="100%" height="100%" overflow="visible" style="display: block;" viewBox="0 0 14.3891 14.3889" fill="none" xmlns="http://www.w3.org/2000/svg">
<g id="Group">
<path id="Vector" d="M6.88511 0.758C6.446 1.14644 3.86644 3.50556 3.77756 7.38822C3.70111 10.7296 5.51889 12.9802 5.98467 13.5242" stroke="var(--stroke-0, white)" stroke-width="1.5" stroke-linecap="round" stroke-linejoin="round"/>
<path id="Vector_2" d="M0.767778 7.66733C1.82644 8.03267 3.10111 8.36244 4.56156 8.52689C8.54289 8.97489 11.7927 7.95622 13.6389 7.19444" stroke="var(--stroke-0, white)" stroke-width="1.5" stroke-linecap="round" stroke-linejoin="round"/>
<path id="Vector_3" d="M1.99178 10.9962C1.99178 10.9962 3.01133 10.4024 4.23178 10.4024C6.19 10.4024 8.37933 12.4353 11.5544 11.9376" stroke="var(--stroke-0, white)" stroke-width="1.5" stroke-linecap="round" stroke-linejoin="round"/>
<path id="Vector_4" d="M1.99178 3.39178C2.61133 4.75 2.12067 6.238 3.87978 6.238C7.49133 6.238 8.08333 2.694 11.8069 2.694" stroke="var(--stroke-0, white)" stroke-width="1.5" stroke-linecap="round" stroke-linejoin="round"/>
<path id="Vector_5" d="M7.19444 13.6389C10.7536 13.6389 13.6389 10.7536 13.6389 7.19444C13.6389 3.63528 10.7536 0.75 7.19444 0.75C3.63528 0.75 0.75 3.63528 0.75 7.19444C0.75 10.7536 3.63528 13.6389 7.19444 13.6389Z" stroke="var(--stroke-0, white)" stroke-width="1.5" stroke-linecap="round" stroke-linejoin="round"/>
</g>
</svg>
