<svg preserveAspectRatio="none" width="100%" height="100%" overflow="visible" style="display: block;" viewBox="0 0 91.6577 16.0696" fill="none" xmlns="http://www.w3.org/2000/svg">
<g id="Group 2147210687">
<g id="parabolic">
<path d="M20.748 5.14974C21.0471 4.7289 21.4568 4.38004 21.9773 4.10318C22.5089 3.81523 23.1125 3.67126 23.788 3.67126C24.5743 3.67126 25.2831 3.86507 25.9144 4.25269C26.5567 4.6403 27.0606 5.19403 27.4261 5.91389C27.8026 6.62267 27.9909 7.44774 27.9909 8.38909C27.9909 9.33044 27.8026 10.1666 27.4261 10.8975C27.0606 11.6174 26.5567 12.1766 25.9144 12.5753C25.2831 12.974 24.5743 13.1734 23.788 13.1734C23.1125 13.1734 22.5145 13.0349 21.9939 12.7581C21.4845 12.4812 21.0692 12.1323 20.748 11.7115V16.0696H18.4224V3.82077H20.748V5.14974ZM25.6154 8.38909C25.6154 7.83535 25.4991 7.35914 25.2665 6.96045C25.045 6.55069 24.746 6.24059 24.3695 6.03017C24.004 5.81976 23.6053 5.71455 23.1734 5.71455C22.7526 5.71455 22.3539 5.82529 21.9773 6.04679C21.6119 6.25721 21.3128 6.5673 21.0803 6.97706C20.8588 7.38683 20.748 7.86857 20.748 8.42231C20.748 8.97604 20.8588 9.45779 21.0803 9.86756C21.3128 10.2773 21.6119 10.593 21.9773 10.8144C22.3539 11.0249 22.7526 11.1301 23.1734 11.1301C23.6053 11.1301 24.004 11.0193 24.3695 10.7978C24.746 10.5763 25.045 10.2607 25.2665 9.85095C25.4991 9.44118 25.6154 8.9539 25.6154 8.38909Z" fill="var(--fill-0, white)"/>
<path d="M28.2523 8.38909C28.2523 7.45881 28.435 6.63375 28.8005 5.91389C29.177 5.19403 29.6809 4.6403 30.3122 4.25269C30.9545 3.86507 31.6688 3.67126 32.4551 3.67126C33.1418 3.67126 33.7398 3.8097 34.2492 4.08656C34.7697 4.36343 35.185 4.71229 35.4951 5.13312V3.82077H37.8374V13.0238H35.4951V11.6783C35.1961 12.1102 34.7808 12.4701 34.2492 12.7581C33.7287 13.0349 33.1251 13.1734 32.4385 13.1734C31.6633 13.1734 30.9545 12.974 30.3122 12.5753C29.6809 12.1766 29.177 11.6174 28.8005 10.8975C28.435 10.1666 28.2523 9.33044 28.2523 8.38909ZM35.4951 8.42231C35.4951 7.8575 35.3844 7.37575 35.1629 6.97706C34.9414 6.5673 34.6424 6.25721 34.2658 6.04679C33.8893 5.82529 33.4851 5.71455 33.0532 5.71455C32.6212 5.71455 32.2226 5.81976 31.8571 6.03017C31.4916 6.24059 31.1926 6.55069 30.96 6.96045C30.7385 7.35914 30.6278 7.83535 30.6278 8.38909C30.6278 8.94282 30.7385 9.43011 30.96 9.85095C31.1926 10.2607 31.4916 10.5763 31.8571 10.7978C32.2336 11.0193 32.6323 11.1301 33.0532 11.1301C33.4851 11.1301 33.8893 11.0249 34.2658 10.8144C34.6424 10.593 34.9414 10.2829 35.1629 9.88417C35.3844 9.47441 35.4951 8.98712 35.4951 8.42231Z" fill="var(--fill-0, white)"/>
<path d="M41.6039 5.24941C41.903 4.76212 42.2906 4.38004 42.7668 4.10318C43.2541 3.82631 43.8078 3.68788 44.428 3.68788V6.12985H43.8134C43.0824 6.12985 42.5287 6.3015 42.1521 6.64482C41.7867 6.98814 41.6039 7.58617 41.6039 8.43892V13.0238H39.2783V3.82077H41.6039V5.24941Z" fill="var(--fill-0, white)"/>
<path d="M44.5658 8.38909C44.5658 7.45881 44.7486 6.63375 45.114 5.91389C45.4906 5.19403 45.9945 4.6403 46.6257 4.25269C47.2681 3.86507 47.9824 3.67126 48.7687 3.67126C49.4553 3.67126 50.0533 3.8097 50.5628 4.08656C51.0833 4.36343 51.4986 4.71229 51.8087 5.13312V3.82077H54.151V13.0238H51.8087V11.6783C51.5097 12.1102 51.0944 12.4701 50.5628 12.7581C50.0423 13.0349 49.4387 13.1734 48.7521 13.1734C47.9768 13.1734 47.2681 12.974 46.6257 12.5753C45.9945 12.1766 45.4906 11.6174 45.114 10.8975C44.7486 10.1666 44.5658 9.33044 44.5658 8.38909ZM51.8087 8.42231C51.8087 7.8575 51.6979 7.37575 51.4764 6.97706C51.2549 6.5673 50.9559 6.25721 50.5794 6.04679C50.2028 5.82529 49.7986 5.71455 49.3667 5.71455C48.9348 5.71455 48.5361 5.81976 48.1706 6.03017C47.8052 6.24059 47.5062 6.55069 47.2736 6.96045C47.0521 7.35914 46.9413 7.83535 46.9413 8.38909C46.9413 8.94282 47.0521 9.43011 47.2736 9.85095C47.5062 10.2607 47.8052 10.5763 48.1706 10.7978C48.5472 11.0193 48.9459 11.1301 49.3667 11.1301C49.7986 11.1301 50.2028 11.0249 50.5794 10.8144C50.9559 10.593 51.2549 10.2829 51.4764 9.88417C51.6979 9.47441 51.8087 8.98712 51.8087 8.42231Z" fill="var(--fill-0, white)"/>
<path d="M57.9175 5.16635C58.2165 4.72336 58.6263 4.36343 59.1468 4.08656C59.6784 3.8097 60.2819 3.67126 60.9575 3.67126C61.7438 3.67126 62.4526 3.86507 63.0838 4.25269C63.7262 4.6403 64.2301 5.19403 64.5955 5.91389C64.9721 6.62267 65.1604 7.44774 65.1604 8.38909C65.1604 9.33044 64.9721 10.1666 64.5955 10.8975C64.2301 11.6174 63.7262 12.1766 63.0838 12.5753C62.4526 12.974 61.7438 13.1734 60.9575 13.1734C60.2709 13.1734 59.6673 13.0405 59.1468 12.7747C58.6374 12.4978 58.2276 12.1434 57.9175 11.7115V13.0238H55.5918V0.954234H57.9175V5.16635ZM62.7848 8.38909C62.7848 7.83535 62.6685 7.35914 62.436 6.96045C62.2145 6.55069 61.9155 6.24059 61.5389 6.03017C61.1735 5.81976 60.7748 5.71455 60.3429 5.71455C59.922 5.71455 59.5233 5.82529 59.1468 6.04679C58.7813 6.25721 58.4823 6.5673 58.2497 6.97706C58.0282 7.38683 57.9175 7.86857 57.9175 8.42231C57.9175 8.97604 58.0282 9.45779 58.2497 9.86756C58.4823 10.2773 58.7813 10.593 59.1468 10.8144C59.5233 11.0249 59.922 11.1301 60.3429 11.1301C60.7748 11.1301 61.1735 11.0193 61.5389 10.7978C61.9155 10.5763 62.2145 10.2607 62.436 9.85095C62.6685 9.44118 62.7848 8.9539 62.7848 8.38909Z" fill="var(--fill-0, white)"/>
<path d="M70.1063 13.1734C69.2204 13.1734 68.423 12.9795 67.7142 12.5919C67.0054 12.1932 66.4461 11.634 66.0364 10.9141C65.6377 10.1943 65.4383 9.36366 65.4383 8.42231C65.4383 7.48096 65.6432 6.65036 66.053 5.9305C66.4738 5.21065 67.0442 4.65691 67.764 4.2693C68.4839 3.87061 69.2868 3.67126 70.1728 3.67126C71.0588 3.67126 71.8617 3.87061 72.5815 4.2693C73.3014 4.65691 73.8662 5.21065 74.276 5.9305C74.6968 6.65036 74.9072 7.48096 74.9072 8.42231C74.9072 9.36366 74.6913 10.1943 74.2593 10.9141C73.8385 11.634 73.2626 12.1932 72.5317 12.5919C71.8118 12.9795 71.0034 13.1734 70.1063 13.1734ZM70.1063 11.1467C70.5272 11.1467 70.9203 11.047 71.2858 10.8477C71.6623 10.6373 71.9613 10.3272 72.1828 9.91739C72.4043 9.50763 72.5151 9.00927 72.5151 8.42231C72.5151 7.54741 72.2825 6.87739 71.8174 6.41225C71.3633 5.93604 70.804 5.69793 70.1396 5.69793C69.4751 5.69793 68.9158 5.93604 68.4617 6.41225C68.0188 6.87739 67.7973 7.54741 67.7973 8.42231C67.7973 9.29721 68.0132 9.97277 68.4451 10.449C68.8881 10.9141 69.4419 11.1467 70.1063 11.1467Z" fill="var(--fill-0, white)"/>
<path d="M78.1083 0.954234V13.0238H75.7826V0.954234H78.1083Z" fill="var(--fill-0, white)"/>
<path d="M80.7549 2.72438C80.3452 2.72438 80.0018 2.59702 79.725 2.3423C79.4592 2.07651 79.3263 1.7498 79.3263 1.36219C79.3263 0.974574 79.4592 0.653407 79.725 0.398689C80.0018 0.132896 80.3452 0 80.7549 0C81.1647 0 81.5025 0.132896 81.7682 0.398689C82.0451 0.653407 82.1835 0.974574 82.1835 1.36219C82.1835 1.7498 82.0451 2.07651 81.7682 2.3423C81.5025 2.59702 81.1647 2.72438 80.7549 2.72438ZM81.9011 3.82077V13.0238H79.5755V3.82077H81.9011Z" fill="var(--fill-0, white)"/>
<path d="M82.7703 8.42231C82.7703 7.46989 82.9641 6.63928 83.3517 5.9305C83.7393 5.21065 84.2764 4.65691 84.9631 4.2693C85.6497 3.87061 86.436 3.67126 87.322 3.67126C88.4627 3.67126 89.404 3.95921 90.146 4.53509C90.8991 5.0999 91.403 5.89728 91.6577 6.92723H89.1493C89.0164 6.52854 88.7894 6.21844 88.4682 5.99695C88.1581 5.76438 87.7705 5.6481 87.3054 5.6481C86.6409 5.6481 86.1149 5.89174 85.7272 6.37903C85.3396 6.85524 85.1458 7.53633 85.1458 8.42231C85.1458 9.29721 85.3396 9.97831 85.7272 10.4656C86.1149 10.9418 86.6409 11.1799 87.3054 11.1799C88.2467 11.1799 88.8614 10.7591 89.1493 9.91739H91.6577C91.403 10.9141 90.8991 11.706 90.146 12.2929C89.393 12.8799 88.4516 13.1734 87.322 13.1734C86.436 13.1734 85.6497 12.9795 84.9631 12.5919C84.2764 12.1932 83.7393 11.6395 83.3517 10.9307C82.9641 10.2109 82.7703 9.37473 82.7703 8.42231Z" fill="var(--fill-0, white)"/>
</g>
<g id="Group 27">
<g id="Subtract">
<path d="M4.06994 8.19543C6.55959 8.1955 8.58835 10.2139 8.67927 12.6834C8.68278 12.7788 8.75981 12.8564 8.85523 12.8564C8.95066 12.8564 9.02768 12.7788 9.03119 12.6835C9.11871 10.3055 11.0027 8.34304 13.3649 8.20382C13.2699 11.8128 10.3144 14.7091 6.68244 14.7091C3.04776 14.7091 0.0906719 11.8083 0 8.19543H4.06994Z" fill="var(--fill-0, white)"/>
<path d="M0.000621491 7.82936C0.103872 4.22777 3.05589 1.33998 6.68244 1.3399C10.3065 1.3399 13.2567 4.22358 13.364 7.8216C11.1119 7.68843 9.29459 5.93924 9.05466 3.71751C9.04358 3.6149 8.95845 3.53475 8.85523 3.53475C8.75202 3.53475 8.66688 3.61493 8.6558 3.71755C8.40611 6.02946 6.44821 7.8293 4.06994 7.82936H0.000621491Z" fill="var(--fill-0, white)"/>
</g>
</g>
</g>
</svg>
