<svg preserveAspectRatio="none" width="100%" height="100%" overflow="visible" style="display: block;" viewBox="0 0 22.1 22.1" fill="none" xmlns="http://www.w3.org/2000/svg">
<g id="Group">
<path id="Vector" d="M16.3924 19.2596C15.7036 16.9468 13.5854 15.25 11.05 15.25C8.5146 15.25 6.3964 16.9468 5.7076 19.2596" stroke="var(--stroke-0, #9C9C9C)" stroke-width="2.5" stroke-linecap="round" stroke-linejoin="round"/>
<path id="Vector_2" d="M11.05 20.85C16.4624 20.85 20.85 16.4624 20.85 11.05C20.85 5.63761 16.4624 1.25 11.05 1.25C5.63761 1.25 1.25 5.63761 1.25 11.05C1.25 16.4624 5.63761 20.85 11.05 20.85Z" stroke="var(--stroke-0, #9C9C9C)" stroke-width="2.5" stroke-linecap="round" stroke-linejoin="round"/>
<path id="Vector_3" d="M11.05 11.05C12.2098 11.05 13.15 10.1098 13.15 8.95C13.15 7.7902 12.2098 6.85 11.05 6.85C9.8902 6.85 8.95 7.7902 8.95 8.95C8.95 10.1098 9.8902 11.05 11.05 11.05Z" stroke="var(--stroke-0, #9C9C9C)" stroke-width="2.5" stroke-linecap="round" stroke-linejoin="round"/>
</g>
</svg>
